# xmcd
#
# Track frame offsets:
#	150
#	10626
#	41038
#	68687
#	94072
#	120755
#	150202
#	188546
#
# Disc length: 2527 seconds
#
# Revision: 1
# Processed by: cddbd v1.5.2PL0 Copyright (c) Steve Scherf et al.
# Submitted via: audiograbber 1.83.01
#
DISCID=4a09dd08
DTITLE=Damnation Defaced - Resurrection Stillborn - The Blackest Halo
DYEAR=2009
DGENRE=Death Metal
TTITLE0=Desecrate the desolation
TTITLE1=The grief of cold dead eyes
TTITLE2=Buried in oblivion
TTITLE3=Resurrection stillborn
TTITLE4=The blackest halo
TTITLE5=In the absence of light
TTITLE6=Blade upon your throat (New recorded)
TTITLE7=Daten-CD
EXTD=
EXTT0=
EXTT1=
EXTT2=
EXTT3=
EXTT4=
EXTT5=
EXTT6=
EXTT7=
PLAYORDER=
